<svg width="25" height="44" viewBox="0 0 25 44" fill="none" xmlns="http://www.w3.org/2000/svg">
<path fill-rule="evenodd" clip-rule="evenodd" d="M1.33964 0.698096C1.49798 0.540269 1.68608 0.41505 1.89316 0.329612C2.10025 0.244174 2.32225 0.200195 2.54646 0.200195C2.77067 0.200195 2.99267 0.244174 3.19976 0.329612C3.40684 0.41505 3.59494 0.540269 3.75328 0.698096L24.2078 21.0353C24.3666 21.1927 24.4925 21.3797 24.5784 21.5856C24.6644 21.7915 24.7086 22.0122 24.7086 22.2351C24.7086 22.4581 24.6644 22.6788 24.5784 22.8847C24.4925 23.0906 24.3666 23.2776 24.2078 23.435L3.75328 43.7722C3.43321 44.0904 2.9991 44.2692 2.54646 44.2692C2.09381 44.2692 1.65971 44.0904 1.33964 43.7722C1.01957 43.454 0.83976 43.0224 0.83976 42.5723C0.83976 42.1223 1.01957 41.6906 1.33964 41.3724L20.5908 22.2351L1.33964 3.09788C1.1809 2.94045 1.05496 2.75343 0.969029 2.54754C0.883098 2.34164 0.838867 2.12091 0.838867 1.89799C0.838867 1.67507 0.883098 1.45434 0.969029 1.24844C1.05496 1.04254 1.1809 0.855525 1.33964 0.698096Z" fill="white"/>
</svg>
