<svg width="25" height="45" viewBox="0 0 25 45" fill="none" xmlns="http://www.w3.org/2000/svg">
<path fill-rule="evenodd" clip-rule="evenodd" d="M24.2336 44.3019C24.0753 44.4597 23.8872 44.585 23.6801 44.6704C23.473 44.7558 23.251 44.7998 23.0268 44.7998C22.8026 44.7998 22.5806 44.7558 22.3735 44.6704C22.1664 44.5849 21.9783 44.4597 21.82 44.3019L1.36542 23.9647C1.20668 23.8073 1.08074 23.6203 0.99481 23.4144C0.90888 23.2085 0.864647 22.9878 0.864647 22.7649C0.864647 22.5419 0.90888 22.3212 0.99481 22.1153C1.08074 21.9094 1.20668 21.7224 1.36542 21.565L21.82 1.2278C22.14 0.909569 22.5741 0.730789 23.0268 0.730789C23.4794 0.730789 23.9135 0.909569 24.2336 1.2278C24.5537 1.54603 24.7335 1.97765 24.7335 2.42769C24.7335 2.87774 24.5537 3.30935 24.2336 3.62759L4.98247 22.7649L24.2336 41.9021C24.3923 42.0595 24.5183 42.2466 24.6042 42.4525C24.6901 42.6584 24.7344 42.8791 24.7344 43.102C24.7344 43.3249 24.6901 43.5457 24.6042 43.7516C24.5183 43.9575 24.3923 44.1445 24.2336 44.3019Z" fill="white"/>
</svg>
